<?xml version="1.0" encoding="UTF-8" standalone="no"?>
<svg
   width="22"
   height="22"
   version="1.1"
   id="svg38"
   sodipodi:docname="audio-volume-muted.svg"
   inkscape:version="1.2.2 (b0a8486541, 2022-12-01)"
   xmlns:inkscape="http://www.inkscape.org/namespaces/inkscape"
   xmlns:sodipodi="http://sodipodi.sourceforge.net/DTD/sodipodi-0.dtd"
   xmlns="http://www.w3.org/2000/svg"
   xmlns:svg="http://www.w3.org/2000/svg">
  <sodipodi:namedview
     id="namedview40"
     pagecolor="#ffffff"
     bordercolor="#000000"
     borderopacity="0.25"
     inkscape:showpageshadow="2"
     inkscape:pageopacity="0.0"
     inkscape:pagecheckerboard="0"
     inkscape:deskcolor="#d1d1d1"
     showgrid="false"
     inkscape:zoom="44.628749"
     inkscape:cx="7.02462"
     inkscape:cy="8.7499652"
     inkscape:window-width="1920"
     inkscape:window-height="1172"
     inkscape:window-x="0"
     inkscape:window-y="28"
     inkscape:window-maximized="1"
     inkscape:current-layer="svg38" />
  <defs
     id="defs34">
    <style
       id="current-color-scheme"
       type="text/css">
   .ColorScheme-Text { color:#dfdfdf; } .ColorScheme-Highlight { color:#4285f4; } .ColorScheme-NeutralText { color:#ff9800; } .ColorScheme-PositiveText { color:#4caf50; } .ColorScheme-NegativeText { color:#f44336; }
  </style>
  </defs>
  <path
     style="opacity:1;fill:#f1f1e4;fill-opacity:1;stroke-width:0.555554"
     class="ColorScheme-Text"
     d="M 6.78125,6 6,6.78125 8.1072048,8.8927952 7.6666666,9.3333334 H 6 v 3.3333326 h 1.6666666 l 2.7777794,2.77778 v -4.21441 l 1.11111,1.11111 v 0.881076 c 0,0 0.262528,-0.09316 0.577256,-0.303819 l 0.756294,0.756293 c -0.390752,0.284506 -0.837588,0.512408 -1.33355,0.658638 v 1.11111 c 0.779572,-0.178438 1.498132,-0.528562 2.102864,-1.000433 L 15.21875,16 16,15.21875 14.457032,13.671442 13.688802,12.903212 12.910807,12.125217 11.555556,10.769964 10.444446,9.658854 8.8927952,8.1072048 Z m 3.663196,0.5555554 -0.766061,0.766059 0.766061,0.7660592 z m 1.11111,0 V 7.6666666 C 13.1491,8.1365054 14.333334,9.3682556 14.333334,11 c 0,0.299156 -0.05212,0.579572 -0.126954,0.849609 l 0.85612,0.856119 C 15.305028,12.179136 15.444446,11.604786 15.444446,11 c 0,-2.1587278 -1.72525,-3.9492054 -3.88889,-4.4444446 z m 0,2.2222224 v 0.4210069 l 1.657986,1.6579863 C 13.119682,9.303874 11.555556,8.7777778 11.555556,8.7777778 Z"
     id="path36" />
</svg>
