<?xml version="1.0" encoding="UTF-8" standalone="no"?>
<svg
   width="22"
   height="22"
   version="1.1"
   id="svg18"
   sodipodi:docname="audio-volume-low.svg"
   inkscape:version="1.2.2 (b0a8486541, 2022-12-01)"
   xmlns:inkscape="http://www.inkscape.org/namespaces/inkscape"
   xmlns:sodipodi="http://sodipodi.sourceforge.net/DTD/sodipodi-0.dtd"
   xmlns="http://www.w3.org/2000/svg"
   xmlns:svg="http://www.w3.org/2000/svg">
  <sodipodi:namedview
     id="namedview20"
     pagecolor="#ffffff"
     bordercolor="#000000"
     borderopacity="0.25"
     inkscape:showpageshadow="2"
     inkscape:pageopacity="0.0"
     inkscape:pagecheckerboard="0"
     inkscape:deskcolor="#d1d1d1"
     showgrid="false"
     inkscape:zoom="53.102509"
     inkscape:cx="6.619273"
     inkscape:cy="14.641493"
     inkscape:window-width="1920"
     inkscape:window-height="1172"
     inkscape:window-x="0"
     inkscape:window-y="28"
     inkscape:window-maximized="1"
     inkscape:current-layer="g212" />
  <defs
     id="defs12">
    <style
       id="current-color-scheme"
       type="text/css">
   .ColorScheme-Text { color:#dfdfdf; } .ColorScheme-Highlight { color:#4285f4; } .ColorScheme-NeutralText { color:#ff9800; } .ColorScheme-PositiveText { color:#4caf50; } .ColorScheme-NegativeText { color:#f44336; }
  </style>
  </defs>
  <g
     id="g212"
     transform="matrix(0.69230769,0,0,0.69230769,5.1153846,4.6877829)">
    <g
       id="g8359"
       transform="matrix(1.1805556,0,0,1.1805556,-1.5347225,-1.6462423)">
      <path
         style="fill:#f1f1e4;fill-opacity:1;stroke-width:0.764706"
         class="ColorScheme-Text"
         d="M 8.1176471,3 4.2941176,6.8235294 H 2 v 4.5882356 h 2.2941176 l 3.8235295,3.823529 z"
         id="path14" />
      <path
         style="opacity:0.35;fill:#f1f1e4;fill-opacity:1;stroke-width:0.764706"
         class="ColorScheme-Text"
         d="m 9.6470588,3 v 1.5294118 c 2.1934672,0.6467194 3.8235292,2.342187 3.8235292,4.5882353 0,2.2460479 -1.63007,3.9415159 -3.8235292,4.5882349 v 1.529412 C 12.625244,14.553612 15,12.089072 15,9.1176471 15,6.1462218 12.625244,3.6816818 9.6470588,3 Z m 0,3.0588235 v 6.1176475 c 0,0 2.2942702,-0.764706 2.2941172,-3.0588239 C 11.941024,6.8235294 9.6470588,6.0588235 9.6470588,6.0588235 Z"
         id="path16" />
    </g>
  </g>
</svg>
